<svg width="353" height="406" viewBox="0 0 353 406" fill="none" xmlns="http://www.w3.org/2000/svg">
<path d="M289.158 169.771C289.883 164.063 290.237 158.229 290.194 152.298C289.719 86.0604 239.207 32.01 177.392 31.5899C114.347 31.1624 63.1146 85.7962 63.1146 153.252C63.1146 158.855 63.4689 164.369 64.1535 169.77C66.9296 191.657 57.3646 213.286 39.9753 225.147C15.5232 241.825 0.875 263.068 0.875 286.201C0.875 339.821 79.5749 383.289 176.656 383.289C273.738 383.289 352.438 339.821 352.438 286.201C352.438 263.068 337.789 241.825 313.336 225.147C295.946 213.286 286.382 191.657 289.158 169.771V169.771Z" fill="url(#paint0_linear_568_13786)"/>
<path d="M308.762 23.6574V382.348C308.762 393.653 300.219 402.478 290.078 402.478H99.5417C89.398 402.478 80.8445 393.65 80.8445 382.348V23.6574C80.8445 12.355 89.398 3.52734 99.5417 3.52734H290.078C300.219 3.52734 308.762 12.3526 308.762 23.6574Z" fill="#1B1935" stroke="#EFEFEF" stroke-width="6"/>
<path d="M259.262 2.52246L251.182 31.0786L253.106 31.6231L251.181 31.0788C250.078 34.9805 246.762 37.5198 243.14 37.5185H243.139H146.49C142.868 37.5185 139.551 34.9783 138.448 31.0786L136.523 31.6231L138.448 31.0786L130.367 2.52246H259.262Z" fill="#05040B" stroke="#C2C2C6" stroke-width="4"/>
<path d="M201.048 302.167H131.247C126.818 302.167 123.228 298.336 123.228 293.613C123.228 288.889 126.818 285.059 131.247 285.059H201.048C205.478 285.059 209.068 288.889 209.068 293.613C209.068 298.336 205.478 302.167 201.048 302.167V302.167Z" fill="#CEFFFC"/>
<path d="M229.918 338.222H131.247C126.818 338.222 123.228 334.392 123.228 329.668C123.228 324.945 126.818 321.114 131.247 321.114H229.918C234.348 321.114 237.937 324.945 237.937 329.668C237.937 334.392 234.348 338.222 229.918 338.222Z" fill="#CEFFFC"/>
<path d="M239.648 130.629H151.998C151.062 130.629 150.164 131.026 149.502 131.732C148.84 132.438 148.469 133.396 148.469 134.394V212.794C148.468 213.29 148.558 213.78 148.735 214.238C148.912 214.695 149.172 215.111 149.5 215.462C149.828 215.812 150.217 216.091 150.646 216.28C151.075 216.47 151.534 216.568 151.998 216.568H167.621V242.988C167.621 244.446 167.891 245.89 168.414 247.236C168.937 248.583 169.704 249.807 170.671 250.837C171.638 251.868 172.786 252.685 174.049 253.242C175.312 253.799 176.665 254.086 178.032 254.085V254.085C179.398 254.086 180.752 253.799 182.015 253.242C183.278 252.685 184.426 251.868 185.393 250.837C186.359 249.807 187.126 248.583 187.649 247.236C188.173 245.89 188.442 244.446 188.442 242.988V216.528H203.003V242.948C203.003 245.891 204.099 248.714 206.05 250.795C208.001 252.876 210.647 254.045 213.406 254.045V254.045C214.772 254.046 216.126 253.759 217.389 253.202C218.652 252.645 219.8 251.828 220.766 250.797C221.733 249.767 222.5 248.543 223.024 247.197C223.547 245.85 223.816 244.406 223.816 242.948V216.528H239.648C240.113 216.528 240.572 216.43 241.001 216.24C241.43 216.051 241.819 215.773 242.147 215.422C242.475 215.072 242.735 214.656 242.912 214.198C243.089 213.74 243.179 213.25 243.178 212.754V134.362C243.17 133.369 242.795 132.42 242.134 131.72C241.473 131.021 240.579 130.629 239.648 130.629V130.629Z" fill="#FBD9DB"/>
<path d="M133.638 130.603C130.877 130.603 128.229 131.772 126.277 133.855C124.325 135.937 123.228 138.762 123.228 141.707V186.794C123.228 188.252 123.497 189.696 124.021 191.042C124.544 192.389 125.311 193.613 126.277 194.643C127.244 195.674 128.392 196.491 129.655 197.048C130.918 197.605 132.272 197.892 133.638 197.89V197.89C136.397 197.89 139.043 196.721 140.994 194.64C142.945 192.559 144.041 189.737 144.041 186.794V141.707C144.042 140.249 143.774 138.805 143.251 137.458C142.729 136.111 141.963 134.887 140.997 133.855C140.031 132.824 138.884 132.006 137.621 131.448C136.358 130.89 135.005 130.603 133.638 130.603V130.603Z" fill="#FBD9DB"/>
<path d="M258.031 130.603C255.274 130.609 252.632 131.782 250.684 133.863C248.737 135.945 247.644 138.766 247.644 141.707V186.794C247.644 188.252 247.913 189.696 248.436 191.042C248.959 192.389 249.726 193.613 250.693 194.643C251.659 195.674 252.808 196.491 254.071 197.048C255.334 197.605 256.687 197.892 258.054 197.89V197.89C260.813 197.89 263.459 196.721 265.409 194.64C267.36 192.56 268.456 189.737 268.456 186.794V141.707C268.457 140.247 268.188 138.801 267.664 137.453C267.141 136.104 266.373 134.879 265.404 133.847C264.436 132.815 263.286 131.998 262.021 131.441C260.755 130.884 259.4 130.599 258.031 130.603Z" fill="#FBD9DB"/>
<path d="M152.716 125.129H238.72C239.247 125.129 239.766 125.002 240.241 124.76C240.716 124.518 241.134 124.166 241.465 123.73C241.796 123.293 242.031 122.783 242.154 122.238C242.277 121.692 242.285 121.124 242.176 120.574C240.778 113.522 237.987 106.868 233.99 101.057C229.992 95.2451 224.879 90.4089 218.992 86.8706L226.343 72.7189C226.478 72.4903 226.566 72.2349 226.605 71.9683C226.644 71.7017 226.631 71.4296 226.568 71.1685C226.504 70.9073 226.392 70.6627 226.237 70.4494C226.082 70.2361 225.888 70.0587 225.667 69.928C225.446 69.7973 225.202 69.716 224.95 69.6891C224.699 69.6622 224.445 69.6902 224.204 69.7715C223.962 69.8527 223.739 69.9855 223.548 70.1617C223.357 70.338 223.201 70.5539 223.09 70.7965L215.679 85.0597C209.421 81.973 202.609 80.3742 195.714 80.3742C188.82 80.3742 182.008 81.973 175.75 85.0597L168.339 70.7965C168.228 70.5539 168.072 70.338 167.881 70.1617C167.689 69.9855 167.466 69.8527 167.225 69.7715C166.984 69.6902 166.73 69.6622 166.479 69.6891C166.227 69.716 165.983 69.7973 165.762 69.928C165.541 70.0587 165.347 70.2361 165.192 70.4494C165.037 70.6627 164.925 70.9073 164.861 71.1685C164.798 71.4296 164.785 71.7017 164.824 71.9683C164.862 72.2349 164.951 72.4903 165.085 72.7189L172.437 86.8706C166.55 90.4089 161.437 95.2451 157.439 101.057C153.442 106.868 150.651 113.522 149.253 120.574C149.144 121.124 149.152 121.693 149.275 122.239C149.398 122.786 149.634 123.296 149.966 123.733C150.298 124.169 150.717 124.521 151.193 124.763C151.669 125.004 152.189 125.13 152.716 125.129ZM221.4 104.038C221.4 104.882 221.165 105.707 220.726 106.409C220.286 107.11 219.661 107.657 218.93 107.981C218.199 108.304 217.394 108.388 216.618 108.223C215.842 108.059 215.129 107.652 214.569 107.055C214.01 106.458 213.629 105.698 213.474 104.87C213.32 104.042 213.399 103.184 213.702 102.404C214.005 101.625 214.518 100.958 215.176 100.489C215.834 100.02 216.607 99.7698 217.399 99.7698C218.46 99.7698 219.478 100.219 220.228 101.02C220.979 101.82 221.4 102.906 221.4 104.038V104.038ZM174.06 99.7698C174.851 99.7698 175.625 100.02 176.283 100.489C176.941 100.958 177.454 101.625 177.756 102.404C178.059 103.184 178.139 104.042 177.984 104.87C177.83 105.698 177.449 106.458 176.889 107.055C176.33 107.652 175.617 108.059 174.84 108.223C174.064 108.388 173.26 108.304 172.529 107.981C171.798 107.657 171.173 107.11 170.733 106.409C170.294 105.707 170.059 104.882 170.059 104.038C170.059 102.906 170.48 101.82 171.231 101.02C171.981 100.219 172.999 99.7698 174.06 99.7698V99.7698Z" fill="#FBD9DB"/>
<defs>
<linearGradient id="paint0_linear_568_13786" x1="13.116" y1="1.24663" x2="356.667" y2="387.665" gradientUnits="userSpaceOnUse">
<stop offset="0.0023" stop-color="#7D7087"/>
<stop offset="1" stop-color="#234B64"/>
</linearGradient>
</defs>
</svg>
